<svg version="1" xmlns="http://www.w3.org/2000/svg" width="933.333" height="933.333" viewBox="0 0 700.000000 700.000000"><path d="M256.1 233.4c.2 112.3.6 204.8 1.1 205.6.4.8 1.9 5.1 3.2 9.5 8.3 26.9 29.7 49 56.9 58.9l7.7 2.9V673h46.5V510.6l9.1-3.6c29.3-11.7 48.9-33.5 57.1-63.6l2.6-9.9.2-202.1.1-202.1h-23.3l-23.3-.1v147.2c0 80.9-.2 170-.3 198.1l-.3 51-2.9 6.9c-3.6 8.9-13.2 18.9-21.8 22.9-24.1 11.2-53.2.7-63.1-22.8l-2.9-7-.3-63.5c-.2-34.9-.3-124.1-.4-198.1V29.3h-46.1l.2 204.1zM603.5 164.2c-7.7 5.5-15 10.8-16.2 11.8l-2.2 1.7 7.5 11.4c12.6 19.3 27.9 51.5 34.1 71.9 4.7 15.2 9.5 37.2 11 49.9.2 2.5.6 5.9.8 7.6 3.5 27.9 1.4 64.5-5.1 92.5-.9 3.6-1.8 7.6-2 9-1 5.3-7.8 26-12.1 37-5.9 14.7-15.9 34.4-25.2 49.3-4.1 6.5-7.2 12-6.9 12.2.2.2 7.6 5.6 16.3 11.8 11.5 8.2 16.3 11.2 17.2 10.5 1.5-1.2 10.9-15.3 14.5-21.8 1.4-2.5 3.5-6.3 4.8-8.5 15.5-27 29.7-66.3 35.6-98 .9-5 1.8-9.8 2-10.9.2-1 .6-4.4 1-7.5.3-3.1.8-5.8.9-6.1.8-1.4 1.9-24.2 1.9-39.5 0-18.9-.9-33.6-2.8-45.2-.4-2.1-.9-5.6-1.1-7.8-1.5-12.3-6.8-33.3-13-52-4.1-12.3-14.8-38.8-16.5-41-.4-.6-2.5-4.4-4.6-8.5-3.4-6.7-15.1-26.5-21.5-36.2-1.3-2.1-2.8-3.8-3.4-3.8-.5.1-7.3 4.6-15 10.2zM68.8 164.7c-12.1 18.3-22.9 38.9-31.3 59.8-6.5 16.2-13.8 39.4-15.9 50.5-.2 1.4-.9 4.5-1.4 7-.6 2.5-1.3 6.5-1.7 9-.3 2.5-.8 5.2-1 6-.2.8-.7 4-1 7-.3 3-.8 6.6-1 8-2.3 12.8-2.3 63 0 75.1.2.9.6 4 1 7 5.8 47.1 25.9 99.9 53.7 141.2 2.4 3.6 4.4 5.5 5.1 5.1.7-.4 8.3-5.6 16.9-11.7 9.5-6.6 15.5-11.4 15.1-12.1-.4-.6-2.9-4.7-5.6-9-8.3-13.4-19.1-33.8-23.1-43.6-1-2.5-2.4-5.9-3.2-7.7-3.9-8.7-13-39.6-14.9-50.3-.6-4-3-19.2-4-26-1.2-8.6-1.2-50.3 0-60.5 2.5-20.3 2.7-22 3.1-22.6.2-.4.6-2.4 1-4.5 1.2-8.1 7.4-30.4 11.9-42.8 7.8-21.5 18.5-42.9 31.3-62.4 3-4.6 5.2-8.6 4.8-8.9-2.3-2.3-31.3-23.3-32.2-23.3-.7 0-4.1 4.4-7.6 9.7z"/><path d="M141.7 205.6c-3.3 4.3-11.3 17.7-16.5 27.4-10.6 19.9-21 50-24.6 71.5-4.7 27.3-5.2 55.7-1.6 78 .5 3.3 1.2 7.7 1.6 9.9.7 4.8 1 6 2.3 11.6.7 2.5 1.3 5.2 1.5 6 5.1 20.9 18 52.3 27.6 67 .5.8 2.3 3.7 4 6.5 1.6 2.7 3.8 6 4.8 7.3l1.7 2.2 16.3-11.4c9-6.3 16.6-11.7 16.9-11.9.3-.3-1.5-3.6-3.9-7.4-2.4-3.7-5.4-8.8-6.7-11.3-1.3-2.5-3.7-7-5.3-10-9.3-17.7-17.7-46.7-20.5-70.3-1.4-11.9-.6-49.9 1.2-52.6.2-.4.6-2.7 1-5.1 3.4-23.1 14.4-51.4 29.7-76.3 3.3-5.4 5.7-10.2 5.2-10.6-1.2-1-19.6-13.9-26.9-18.8l-6-4-1.8 2.3zM533.4 214.8l-16.1 11.6 5.2 8.1c15.5 23.9 26.9 52.6 31.4 79 3.3 19.2 3.6 50.1.6 67-5.3 30.1-15.1 56-30.4 80.3-2.8 4.5-5.1 8.5-5.1 8.9 0 1 31.5 23.3 32.9 23.3 1.4 0 11-14.9 17.5-27.3 11.8-22.1 22-52.2 25.6-75.2.6-3.9 1.3-8 1.5-9.1.9-5.7 1.9-21.1 1.9-31.4 0-22.6-2.6-43.3-7.9-63-1.5-5.2-3-11.1-3.5-13-5.2-20.3-31.9-71.6-37-70.9-.3 0-7.7 5.3-16.6 11.7z"/><path d="M477.5 255.2c-3.3 2.3-10.9 7.7-16.8 12.1l-10.8 7.9 2 3.2c8.8 14.1 15.9 31.3 19.2 46.6 2.6 12.2 3.1 31.9 1 43.5-2.7 14.9-10.7 35.8-18.4 47.8l-3.4 5.3 16 11.4c8.9 6.3 16.6 11.6 17.3 11.8 2.7.7 16.1-24.2 21.8-40.7 15.1-43.6 12.7-86.1-7.2-128.1-2.8-6-13.9-25.1-14.6-25 0 0-2.8 1.9-6.1 4.2zM209.8 253.7c-1.5 1.9-6.7 10.4-11 18.3-3.4 6.2-10.1 23.7-13.2 34.2-3.1 10.8-5.8 29.5-5.8 41.3-.1 5.8 1.2 24.7 1.7 25.5.2.3.6 2.4 1 4.8.9 6.4 6.1 24 9.5 32.8 4 10 8 18 13.7 27.1 5.1 8.3 4.3 8.2 14.5.9 3.1-2.3 6.4-4.7 7.5-5.4 8.8-6 16.3-11.4 16.3-11.9 0-.3-1.3-2.7-2.8-5.2-15.9-25.9-22.6-56.7-18.4-84.6 2.3-15.6 10.3-37 18.8-50.3 1.9-2.9 3.4-5.4 3.4-5.6 0-.1-4.4-3.4-9.7-7.2-5.4-3.7-10-7.1-10.3-7.4-.6-.8-12.9-9-13.3-9-.2 0-1.1.8-1.9 1.7z"/></svg>